<svg width="28" height="28" viewBox="0 0 28 28" fill="none" xmlns="http://www.w3.org/2000/svg">
<rect width="28" height="28" rx="8" fill="#F5F5FF"/>
<g clip-path="url(#clip0_241_1822)">
<path fill-rule="evenodd" clip-rule="evenodd" d="M16.7665 5.32514C16.0514 5.11496 15.2907 5 14.5008 5C12.1961 5 10.1336 5.9693 8.75854 7.49204L12.3017 10.2654L16.7664 5.32508L16.7665 5.32514Z" fill="black"/>
<path fill-rule="evenodd" clip-rule="evenodd" d="M8.75695 7.49207C7.66147 8.70485 7 10.2699 7 11.9772C7 13.2898 7.28117 14.3528 7.74272 15.3055L12.3001 10.2654L8.75695 7.49207Z" fill="black"/>
<path fill-rule="evenodd" clip-rule="evenodd" d="M14.5007 9.30968C16.0854 9.30968 17.3694 10.5043 17.3694 11.9787C17.3694 12.6349 17.1142 13.2368 16.6917 13.701C16.6917 13.701 18.9574 11.1939 21.1564 8.76224C20.2478 7.13666 18.6729 5.88607 16.7681 5.32507L12.3 10.2654C12.8267 9.68018 13.6166 9.30968 14.5007 9.30968Z" fill="black"/>
<path fill-rule="evenodd" clip-rule="evenodd" d="M14.5008 14.6462C12.9161 14.6462 11.6321 13.4516 11.6321 11.9772C11.6321 11.3254 11.884 10.7281 12.3001 10.2639L7.74268 15.3055C8.52119 16.913 9.81658 18.2029 11.151 19.8284L16.69 13.7011C16.165 14.2788 15.3784 14.6462 14.5008 14.6462Z" fill="black"/>
<path fill-rule="evenodd" clip-rule="evenodd" d="M16.5812 21.5009C19.0825 17.8611 21.9999 16.2083 21.9999 11.9772C21.9999 10.8173 21.6944 9.72407 21.1564 8.76233L11.1526 19.8284C11.5768 20.3456 12.0042 20.896 12.4219 21.5024C13.9432 23.6891 13.5206 25.0001 14.5024 25.0001C15.4808 25.0001 15.0598 23.6875 16.5812 21.5009Z" fill="black"/>
</g>
<defs>
<clipPath id="clip0_241_1822">
<rect width="15" height="20" fill="white" transform="translate(7 5)"/>
</clipPath>
</defs>
</svg>
