<svg width="24" height="24" viewBox="0 0 24 24" fill="none" xmlns="http://www.w3.org/2000/svg">
<g clip-path="url(#clip0_484_2022)">
<path d="M23.1758 2.01856C23.3066 1.99132 23.4434 2.01856 23.5566 2.09193C23.75 2.17787 23.8867 2.38118 23.8867 2.62014L23.998 19.3007C24.0078 19.5061 23.9141 19.7094 23.7383 19.8205L17.3906 23.8848C17.3008 23.9581 17.1894 24 17.0684 24C17.0391 24 17.0098 23.998 16.9824 23.9917L0.509758 22.0256C0.226555 22.013 -7.14912e-06 21.7614 -7.14912e-06 21.4533V4.48983C-0.00586652 4.26346 0.113274 4.04337 0.320305 3.94695L8.58398 0.0482591C8.66992 0.0063377 8.76757 -0.0104309 8.86913 0.00424163L23.1758 2.01856ZM17.6055 7.09734V22.4112L22.9297 19.003L22.8262 3.56546L17.6055 7.09734ZM16.5332 22.7822V7.25874L9.5078 6.29664L9.27734 13.5008L6.81054 11.6982L4.34374 13.1948L4.85351 5.65944L1.07226 5.14171V20.9398L16.5332 22.7822ZM15.4219 2.08354L10.2402 5.24022L16.9805 6.16249L21.7051 2.96808L15.4219 2.08354ZM5.51366 4.59254L10.5371 1.39603L8.88085 1.16337L2.48827 4.17961L5.51366 4.59254Z" fill="#C2C2C2"/>
</g>
<defs>
<clipPath id="clip0_484_2022">
<rect width="24" height="24" fill="white"/>
</clipPath>
</defs>
</svg>
