<svg width="28" height="28" viewBox="0 0 28 28" fill="none" xmlns="http://www.w3.org/2000/svg">
<rect width="28" height="28" rx="8" fill="#F5F5FF"/>
<path d="M5.43476 10.7128C5.42851 10.6017 5.44374 10.4874 5.48398 10.3763C6.18319 8.4613 7.42538 6.86552 8.99257 5.75059C10.5582 4.63647 12.4457 4 14.4383 4C17.0785 4 19.4691 5.09928 21.1992 6.87554C22.9293 8.6518 24 11.1062 24 13.8169C24 16.218 23.1559 18.4214 21.7551 20.1307C20.3332 21.8661 18.3379 23.0889 16.0707 23.4899C15.8578 23.5272 15.65 23.4751 15.484 23.3596C15.7184 22.9004 15.8578 22.371 15.8516 21.8492C17.7168 21.5059 19.3562 20.4961 20.5258 19.0687C21.6859 17.6522 22.3855 15.8202 22.3855 13.8169C22.3855 11.5638 21.4957 9.52369 20.0578 8.04742C18.6199 6.57114 16.6328 5.65755 14.4383 5.65755C12.7769 5.65755 11.2062 6.18573 9.90702 7.11016C8.69101 7.97523 7.71093 9.1872 7.11366 10.6366C6.5578 10.5452 5.97929 10.5584 5.43476 10.7128ZM12.191 13.2527V16.5036H12.6855C12.8617 16.5036 12.9824 16.4815 13.0473 16.4378C13.1125 16.3937 13.1449 16.2934 13.1449 16.1362V13.2527H14.5371V15.6858C14.5371 16.0785 14.5117 16.3949 14.4605 16.6351C14.4094 16.8754 14.3144 17.0787 14.175 17.2451C14.0359 17.4116 13.8457 17.5271 13.6043 17.5916C13.3629 17.6562 13.0496 17.6887 12.6644 17.6887C12.2793 17.6887 11.9672 17.6562 11.7281 17.5916C11.4894 17.5271 11.3 17.4116 11.1609 17.2451C11.0219 17.0787 10.9266 16.8754 10.8754 16.6351C10.8246 16.3949 10.7988 16.0785 10.7988 15.6858V13.2527H12.191ZM15.216 17.5086L15.4109 16.3648C15.8375 16.4711 16.2219 16.5244 16.5629 16.5244C16.9039 16.5244 17.1789 16.5104 17.3879 16.4827V16.1362L16.7613 16.0809C16.1949 16.03 15.8062 15.8948 15.5953 15.6754C15.384 15.4556 15.2785 15.1312 15.2785 14.7013C15.2785 14.1101 15.4074 13.7035 15.6648 13.4817C15.9223 13.2599 16.3598 13.1488 16.9769 13.1488C17.5941 13.1488 18.1512 13.2065 18.6477 13.3221L18.4738 14.431C18.0422 14.362 17.6965 14.3271 17.4363 14.3271C17.1766 14.3271 16.9562 14.3387 16.775 14.362V14.7013L17.2766 14.7498C17.8844 14.81 18.3043 14.9543 18.5363 15.1829C18.7684 15.4119 18.8844 15.7296 18.8844 16.1362C18.8844 16.4274 18.8449 16.6732 18.766 16.8742C18.6871 17.0755 18.5934 17.2279 18.484 17.3318C18.375 17.4356 18.2207 17.5154 18.0211 17.5708C17.8215 17.6265 17.6465 17.6598 17.4957 17.6715C17.3449 17.6831 17.1441 17.6887 16.8934 17.6887C16.2902 17.6887 15.7309 17.6285 15.216 17.5086ZM12.5055 11.2033L12.5641 11.8767C12.4 11.9464 12.1945 11.9813 11.9469 11.9813C11.6996 11.9813 11.5012 11.9545 11.3512 11.9007C11.2016 11.8474 11.0836 11.7636 10.9977 11.6485C10.9121 11.5334 10.8519 11.3982 10.818 11.2434C10.7844 11.0882 10.7672 10.8969 10.7672 10.6699C10.7672 10.4425 10.7844 10.2508 10.818 10.0944C10.8519 9.93797 10.9121 9.80242 10.9977 9.68732C11.1644 9.46553 11.4703 9.35444 11.9156 9.35444C12.0144 9.35444 12.1312 9.36447 12.2652 9.38452C12.3996 9.40457 12.4988 9.42944 12.5641 9.45872L12.4469 10.0723C12.2777 10.035 12.1227 10.0162 11.982 10.0162C11.8414 10.0162 11.7437 10.0294 11.6891 10.0563C11.6344 10.0832 11.607 10.1365 11.607 10.2167V11.2675C11.7086 11.2887 11.8117 11.2995 11.9156 11.2995C12.1371 11.2995 12.3336 11.2675 12.5055 11.2033ZM13.5367 11.9212H12.7125L13.3453 9.4146H14.5523L15.1848 11.9212H14.3609L14.2711 11.5241H13.6266L13.5367 11.9212ZM13.85 10.1846L13.7055 10.8865H14.1883L14.0473 10.1846H13.85ZM17.0129 11.9212H15.4508V9.4146H16.2316V11.2795H17.0129V11.9212ZM18.9074 11.9212H17.3449V9.4146H18.1262V11.2795H18.9074V11.9212ZM6.96679 16.9123C7.25273 17.584 7.59374 18.2365 8.0496 18.8522C8.54491 19.5231 9.18242 20.1544 10.0348 20.7279C10.1961 20.8329 10.3738 20.6978 10.5 20.5935C10.5738 20.5322 10.6684 20.4323 10.7687 20.322C11.1648 19.8921 11.6555 19.3591 12.2309 19.7172C12.2434 19.7248 12.2531 19.7337 12.2656 19.7413L14.1609 21.1606C14.1668 21.1646 14.173 21.1726 14.1789 21.1767C14.4258 21.3944 14.5047 21.6976 14.4727 22.0261C14.3852 22.8534 13.7527 23.5429 13.0023 23.7963C12.607 23.9319 12.1777 23.9812 11.7684 23.9968C11.1258 24.0221 10.5394 23.895 9.9539 23.6359C9.38124 23.3812 8.81757 23.0042 8.20937 22.5178L8.16445 22.4809C7.88515 22.2559 7.58398 22.0144 7.29296 21.7373C6.22655 20.7074 5.18241 19.2765 4.56366 17.7613C4.04452 16.4896 3.82929 15.1545 4.15272 13.9413C4.33124 13.2763 4.67929 12.692 5.21523 12.3407C5.6828 12.0327 6.28241 11.9027 7.0246 12.0547C7.11015 12.0708 7.18163 12.1309 7.21366 12.2111L8.27109 14.6054C8.43398 14.8789 8.43124 15.1312 8.30116 15.3702C8.19335 15.5659 7.99999 15.7348 7.74452 15.8852C7.66835 15.9385 7.57851 15.991 7.48476 16.0468C7.25312 16.1828 6.99765 16.3343 6.91405 16.5289C6.84687 16.6849 6.90624 16.7699 6.96679 16.9123Z" fill="black"/>
</svg>
