<svg width="28" height="28" viewBox="0 0 28 28" fill="none" xmlns="http://www.w3.org/2000/svg">
<rect width="28" height="28" rx="8" fill="#F5F5FF"/>
<path d="M19.8333 9.83333L19.1105 19.9521C19.0482 20.8243 18.3225 21.5 17.4481 21.5H10.5518C9.67739 21.5 8.95165 20.8243 8.88935 19.9521L8.16659 9.83333H11.4999V7.33333C11.4999 6.8731 11.873 6.5 12.3333 6.5H15.6666C16.1268 6.5 16.4999 6.8731 16.4999 7.33333V9.83333H19.8333Z" fill="white"/>
<path d="M19.8333 9.83333L19.1105 19.9521C19.0482 20.8243 18.3225 21.5 17.4481 21.5H10.5518C9.67739 21.5 8.95165 20.8243 8.88935 19.9521L8.16659 9.83333M12.3333 13.1667V18.1667M15.6666 13.1667V18.1667M16.4999 9.83333V7.33333C16.4999 6.8731 16.1268 6.5 15.6666 6.5H12.3333C11.873 6.5 11.4999 6.8731 11.4999 7.33333V9.83333M7.33325 9.83333H20.6666" stroke="#101010" stroke-width="1.5" stroke-linecap="round" stroke-linejoin="round"/>
</svg>
