<svg width="20" height="18" viewBox="0 0 20 18" fill="none" xmlns="http://www.w3.org/2000/svg">
<g clip-path="url(#clip0_526_1878)">
<path d="M13.1102 18.0001H6.44383V10.5131L0.520002 2.62776C0.286408 2.30171 0.12469 1.96295 0.0504708 1.65004C-0.0194511 1.35554 -0.0182792 1.06805 0.0637521 0.812996C0.153596 0.530767 0.334065 0.303318 0.607111 0.160013C0.795002 0.0618459 1.02742 0.00575065 1.30477 0.00443592L18.4649 0.00180646C18.7747 -0.0109026 19.0489 0.0438779 19.2751 0.152562C19.5493 0.282721 19.7548 0.497461 19.8782 0.773554C19.9973 1.04088 20.0317 1.3551 19.9696 1.6965C19.911 2.01378 19.7677 2.35868 19.5274 2.71147L13.5923 10.5166V18.0001H13.1102ZM16.845 2.76187L14.1434 6.31384L13.4141 5.61221L16.1157 2.06024L16.845 2.76187ZM13.5325 7.11758L12.5774 8.37358L11.8477 7.67195L12.8028 6.41595L13.5325 7.11758ZM7.40789 16.9189H12.6282V10.3198L12.7454 9.96923L18.7677 2.0506C18.9149 1.83279 18.9997 1.63909 19.0294 1.47913C19.047 1.38271 19.043 1.30602 19.02 1.25475C19.0009 1.21224 18.9583 1.17279 18.8954 1.14299C18.7966 1.09347 18.6587 1.07112 18.4876 1.08076L1.30633 1.08339C1.17625 1.0812 1.0786 1.10136 1.01336 1.13511C0.986799 1.14913 0.970783 1.16359 0.967268 1.17542C0.954768 1.2153 0.959455 1.28411 0.980158 1.37088C1.02117 1.54443 1.12117 1.74646 1.26844 1.95287L7.29305 9.97405L7.40789 10.3198V16.9189Z" fill="#939393"/>
</g>
<defs>
<clipPath id="clip0_526_1878">
<rect width="20" height="18" fill="white"/>
</clipPath>
</defs>
</svg>
