<svg width="20" height="20" viewBox="0 0 20 20" fill="none" xmlns="http://www.w3.org/2000/svg">
<path d="M9.99992 4.99998V3.33331M9.99992 4.99998C9.07944 4.99998 8.33325 5.74617 8.33325 6.66665C8.33325 7.58712 9.07944 8.33331 9.99992 8.33331M9.99992 4.99998C10.9204 4.99998 11.6666 5.74617 11.6666 6.66665C11.6666 7.58712 10.9204 8.33331 9.99992 8.33331M4.99992 15C5.92039 15 6.66659 14.2538 6.66659 13.3333C6.66659 12.4128 5.92039 11.6666 4.99992 11.6666M4.99992 15C4.07944 15 3.33325 14.2538 3.33325 13.3333C3.33325 12.4128 4.07944 11.6666 4.99992 11.6666M4.99992 15V16.6666M4.99992 11.6666V3.33331M9.99992 8.33331V16.6666M14.9999 15C15.9204 15 16.6666 14.2538 16.6666 13.3333C16.6666 12.4128 15.9204 11.6666 14.9999 11.6666M14.9999 15C14.0794 15 13.3333 14.2538 13.3333 13.3333C13.3333 12.4128 14.0794 11.6666 14.9999 11.6666M14.9999 15V16.6666M14.9999 11.6666V3.33331" stroke="#101010" stroke-width="1.5" stroke-linecap="round" stroke-linejoin="round"/>
</svg>
