<svg width="28" height="28" viewBox="0 0 28 28" fill="none" xmlns="http://www.w3.org/2000/svg">
<rect width="28" height="28" rx="8" fill="#F5F5FF"/>
<g clip-path="url(#clip0_241_1818)">
<path d="M20 21C20.5304 21 21.0391 21.2107 21.4142 21.5858C21.7893 21.9609 22 22.4696 22 23C22 23.5304 21.7893 24.0391 21.4142 24.4142C21.0391 24.7893 20.5304 25 20 25C19.4696 25 18.9609 24.7893 18.5858 24.4142C18.2107 24.0391 18 23.5304 18 23C18 21.89 18.89 21 20 21ZM4 5H7.27L8.21 7H23C23.2652 7 23.5196 7.10536 23.7071 7.29289C23.8946 7.48043 24 7.73478 24 8C24 8.17 23.95 8.34 23.88 8.5L20.3 14.97C19.96 15.58 19.3 16 18.55 16H11.1L10.2 17.63L10.17 17.75C10.17 17.8163 10.1963 17.8799 10.2432 17.9268C10.2901 17.9737 10.3537 18 10.42 18H22V20H10C9.46957 20 8.96086 19.7893 8.58579 19.4142C8.21071 19.0391 8 18.5304 8 18C8 17.65 8.09 17.32 8.24 17.04L9.6 14.59L6 7H4V5ZM10 21C10.5304 21 11.0391 21.2107 11.4142 21.5858C11.7893 21.9609 12 22.4696 12 23C12 23.5304 11.7893 24.0391 11.4142 24.4142C11.0391 24.7893 10.5304 25 10 25C9.46957 25 8.96086 24.7893 8.58579 24.4142C8.21071 24.0391 8 23.5304 8 23C8 21.89 8.89 21 10 21ZM19 14L21.78 9H9.14L11.5 14H19Z" fill="black"/>
</g>
<defs>
<clipPath id="clip0_241_1818">
<rect width="24" height="24" fill="white" transform="translate(3 3)"/>
</clipPath>
</defs>
</svg>
